<svg width="225" height="40" viewBox="0 0 225 40" fill="none" xmlns="http://www.w3.org/2000/svg">
<path fill-rule="evenodd" clip-rule="evenodd" d="M104.813 12.8V8H69.7497V12.8H90.3073L84.2553 18.8V32H90.3073V12.8L104.813 12.8ZM113.843 8L107.887 13.1428V26L113.843 32V31.9861H136.898V32L142.854 26.4286V14L136.898 8H113.843ZM136.898 11.456H113.843V28.5301H136.898V11.456ZM146.985 8H152.172V32H146.985V8ZM176.957 32L169.692 32L152.172 8H159.009L176.957 32ZM176.957 32V8H182.144V32H176.957ZM198.41 20L185.506 8H192.581L205.055 20L192.581 32H185.506L198.41 20ZM205.055 20L217.498 8H224.604L211.732 20L224.604 32H217.498L205.055 20Z" fill="white"/>
<path d="M21.9155 13.376L16.3224 8H5.66246L16.782 18.3316L21.9155 13.376Z" fill="white" fill-opacity="0.6"/>
<path d="M20.26 21.7369L25.3357 26.6366L11.4326 40H0.604004L20.26 21.7369Z" fill="white" fill-opacity="0.6"/>
<path d="M53.7391 0L34.0389 18.35L48.6933 32H37.9853L23.8193 18.35L42.8629 0H53.7391Z" fill="white"/>
</svg>
