<svg width="302" height="90" viewBox="0 0 302 90" fill="none" xmlns="http://www.w3.org/2000/svg">
<mask id="path-1-outside-1_26_368" maskUnits="userSpaceOnUse" x="0" y="0" width="302" height="90" fill="black">
<rect fill="white" width="302" height="90"/>
<path fill-rule="evenodd" clip-rule="evenodd" d="M49.6786 3H270.848C286.396 3 299 17.9295 299 36.3461V53.6527C299 72.0693 286.396 86.9989 270.848 86.9989H49.6786C42.5403 86.9989 36.0226 83.852 31.0602 78.6656C28.6336 83.9242 21.012 85.9261 19.9714 86.1995L19.941 86.2075C16.5414 87.0898 13.8866 87.0218 12.435 86.9766C10.9298 86.9352 9.56757 86.9032 8.3763 86.8751C5.00282 86.7957 3 86.7485 3 86.6148C3 86.5752 3.15922 86.5522 3.4588 86.5089C4.01484 86.4286 5.05441 86.2785 6.45696 85.8228C6.45696 85.8228 6.78165 85.7097 7.14453 85.5739C7.67931 85.3703 13.0653 82.4296 15.2808 80.122V80.1447C18.21 77.0881 21.8077 68.6393 21.7002 57.3802C21.5853 56.1564 21.5263 54.9127 21.5263 53.6527V36.3461C21.5263 17.9295 34.1305 3 49.6786 3Z"/>
</mask>
<path fill-rule="evenodd" clip-rule="evenodd" d="M49.6786 3H270.848C286.396 3 299 17.9295 299 36.3461V53.6527C299 72.0693 286.396 86.9989 270.848 86.9989H49.6786C42.5403 86.9989 36.0226 83.852 31.0602 78.6656C28.6336 83.9242 21.012 85.9261 19.9714 86.1995L19.941 86.2075C16.5414 87.0898 13.8866 87.0218 12.435 86.9766C10.9298 86.9352 9.56757 86.9032 8.3763 86.8751C5.00282 86.7957 3 86.7485 3 86.6148C3 86.5752 3.15922 86.5522 3.4588 86.5089C4.01484 86.4286 5.05441 86.2785 6.45696 85.8228C6.45696 85.8228 6.78165 85.7097 7.14453 85.5739C7.67931 85.3703 13.0653 82.4296 15.2808 80.122V80.1447C18.21 77.0881 21.8077 68.6393 21.7002 57.3802C21.5853 56.1564 21.5263 54.9127 21.5263 53.6527V36.3461C21.5263 17.9295 34.1305 3 49.6786 3Z" fill="#0E100F"/>
<path d="M31.0602 78.6656L32.9157 76.8902L30.3085 74.1653L28.7284 77.5896L31.0602 78.6656ZM19.9714 86.1995L19.319 83.7156L19.3185 83.7158L19.9714 86.1995ZM19.941 86.2075L20.5861 88.6932L20.5939 88.6911L19.941 86.2075ZM12.435 86.9766L12.515 84.4097L12.5055 84.4095L12.435 86.9766ZM8.3763 86.8751L8.31586 89.4425H8.31586L8.3763 86.8751ZM3.4588 86.5089L3.82582 89.0506H3.82583L3.4588 86.5089ZM6.45696 85.8228L7.2506 88.2651L7.2762 88.2568L7.30161 88.248L6.45696 85.8228ZM7.14453 85.5739L8.04427 87.9792L8.05128 87.9766L8.05829 87.974L7.14453 85.5739ZM15.2808 80.122H17.8489V73.7393L13.4283 78.3434L15.2808 80.122ZM15.2808 80.1447H12.7127V86.536L17.1349 81.9215L15.2808 80.1447ZM21.7002 57.3802L24.2682 57.3557L24.2671 57.2476L24.257 57.1401L21.7002 57.3802ZM270.848 0.431926H49.6786V5.56807H270.848V0.431926ZM301.568 36.3461C301.568 16.9358 288.204 0.431926 270.848 0.431926V5.56807C284.587 5.56807 296.432 18.9231 296.432 36.3461H301.568ZM301.568 53.6527V36.3461H296.432V53.6527H301.568ZM270.848 89.567C288.204 89.567 301.568 73.0629 301.568 53.6527H296.432C296.432 71.0757 284.587 84.4308 270.848 84.4308V89.567ZM49.6786 89.567H270.848V84.4308H49.6786V89.567ZM29.2046 80.4409C34.5861 86.0654 41.7503 89.567 49.6786 89.567V84.4308C43.3304 84.4308 37.4591 81.6386 32.9157 76.8902L29.2046 80.4409ZM20.6238 88.6833C21.1922 88.534 23.5725 87.9099 26.1622 86.5901C28.6884 85.3025 31.8189 83.1505 33.392 79.7416L28.7284 77.5896C27.8749 79.4393 25.9813 80.9175 23.8299 82.014C21.742 83.0781 19.7912 83.5916 19.319 83.7156L20.6238 88.6833ZM20.5939 88.6911L20.6244 88.6831L19.3185 83.7158L19.2881 83.7238L20.5939 88.6911ZM12.355 89.5434C13.8823 89.591 16.8287 89.6683 20.5861 88.6932L19.2959 83.7217C16.254 84.5112 13.8908 84.4526 12.515 84.4097L12.355 89.5434ZM8.31586 89.4425C9.50742 89.4705 10.8649 89.5025 12.3645 89.5437L12.5055 84.4095C10.9946 84.368 9.62771 84.3358 8.43674 84.3078L8.31586 89.4425ZM0.431926 86.6148C0.431926 87.49 0.857958 88.101 1.1622 88.4148C1.4488 88.7104 1.73924 88.8683 1.87892 88.9379C2.1654 89.0805 2.4206 89.1415 2.51184 89.1627C2.73764 89.2151 2.96136 89.2409 3.10567 89.2556C3.42782 89.2884 3.84885 89.3117 4.31617 89.3312C5.26766 89.3708 6.64039 89.403 8.31586 89.4425L8.43674 84.3078C6.73873 84.2678 5.42331 84.2367 4.53001 84.1995C4.07495 84.1805 3.78443 84.162 3.62564 84.1458C3.52946 84.1361 3.57036 84.1357 3.67345 84.1596C3.70335 84.1665 3.91222 84.2127 4.16771 84.3399C4.2919 84.4017 4.57068 84.5518 4.8495 84.8394C5.14595 85.1451 5.56807 85.7479 5.56807 86.6148H0.431926ZM3.09179 83.9672C2.98153 83.9831 2.76827 84.0127 2.59291 84.0492C2.52584 84.0632 2.28606 84.1123 2.01818 84.2271C1.89162 84.2813 1.5867 84.4207 1.27708 84.703C0.943373 85.0073 0.431926 85.6505 0.431926 86.6148H5.56807C5.56807 87.5692 5.0616 88.203 4.73778 88.4982C4.43803 88.7716 4.14789 88.9023 4.04093 88.9482C3.90705 89.0055 3.7999 89.0368 3.7515 89.0502C3.69654 89.0655 3.65651 89.0741 3.64121 89.0772C3.62036 89.0816 3.6365 89.078 3.82582 89.0506L3.09179 83.9672ZM5.66331 83.3804C4.46865 83.7686 3.59859 83.894 3.09178 83.9672L3.82583 89.0506C4.43109 88.9632 5.64017 88.7884 7.2506 88.2651L5.66331 83.3804ZM6.2448 83.1686C6.07854 83.2308 5.91901 83.2886 5.80011 83.3311C5.74103 83.3522 5.69286 83.3693 5.65997 83.3808C5.64355 83.3866 5.63099 83.391 5.62285 83.3939C5.61878 83.3953 5.61582 83.3963 5.61404 83.397C5.61315 83.3973 5.61255 83.3975 5.61226 83.3976C5.61212 83.3976 5.61205 83.3977 5.61205 83.3977C5.61206 83.3977 5.61208 83.3977 5.61212 83.3976C5.61214 83.3976 5.61217 83.3976 5.6122 83.3976C5.61222 83.3976 5.61224 83.3976 5.61225 83.3976C5.61228 83.3976 5.61231 83.3976 6.45696 85.8228C7.30161 88.248 7.30164 88.248 7.30167 88.2479C7.30169 88.2479 7.30172 88.2479 7.30174 88.2479C7.3018 88.2479 7.30185 88.2479 7.30191 88.2479C7.30203 88.2478 7.30217 88.2478 7.30233 88.2477C7.30266 88.2476 7.30306 88.2475 7.30354 88.2473C7.3045 88.247 7.30577 88.2465 7.30734 88.246C7.3105 88.2449 7.31487 88.2433 7.32039 88.2414C7.33142 88.2375 7.34707 88.232 7.36675 88.2251C7.40608 88.2113 7.46176 88.1915 7.52922 88.1674C7.66338 88.1195 7.84764 88.0528 8.04427 87.9792L6.2448 83.1686ZM13.4283 78.3434C12.5635 79.2442 10.9079 80.4124 9.22813 81.455C8.42201 81.9553 7.66637 82.3926 7.08591 82.714C6.42007 83.0827 6.15771 83.2018 6.23078 83.1739L8.05829 87.974C8.39875 87.8443 9.01017 87.5195 9.57384 87.2074C10.2229 86.848 11.0525 86.3677 11.9366 85.8189C13.6374 84.7633 15.7826 83.3074 17.1333 81.9006L13.4283 78.3434ZM17.8489 80.1447V80.122H12.7127V80.1447H17.8489ZM19.1323 57.4047C19.1834 62.759 18.3525 67.4128 17.184 71.0536C15.9964 74.7542 14.5203 77.2266 13.4267 78.3678L17.1349 81.9215C18.9705 80.0061 20.7578 76.7259 22.0745 72.6231C23.4104 68.4607 24.3246 63.2605 24.2682 57.3557L19.1323 57.4047ZM18.9582 53.6527C18.9582 54.9929 19.021 56.3167 19.1434 57.6203L24.257 57.1401C24.1496 55.9962 24.0944 54.8325 24.0944 53.6527H18.9582ZM18.9582 36.3461V53.6527H24.0944V36.3461H18.9582ZM49.6786 0.431926C32.3219 0.431926 18.9582 16.9358 18.9582 36.3461H24.0944C24.0944 18.9231 35.9392 5.56807 49.6786 5.56807V0.431926Z" fill="#1D30DB" mask="url(#path-1-outside-1_26_368)"/>
</svg>
