<svg width="419" height="102" viewBox="0 0 419 102" fill="none" xmlns="http://www.w3.org/2000/svg">
<mask id="path-1-outside-1_653_1024" maskUnits="userSpaceOnUse" x="0" y="0" width="419" height="102" fill="black">
<rect fill="white" width="419" height="102"/>
<path fill-rule="evenodd" clip-rule="evenodd" d="M68.1288 3H376.72C398.414 3 416 20.0623 416 41.11V60.889C416 81.9367 398.414 98.9992 376.72 98.9992H68.1288C58.1692 98.9992 49.0753 95.4029 42.1515 89.4757C38.7656 95.4855 28.1315 97.7734 26.6797 98.0858L26.6373 98.0949C21.8939 99.1032 18.1897 99.0256 16.1644 98.9739C14.0642 98.9266 12.1636 98.89 10.5015 98.8579C5.79451 98.7672 3 98.7133 3 98.5604C3 98.5152 3.22215 98.4889 3.64015 98.4394C4.41597 98.3477 5.86646 98.1761 7.8234 97.6553C7.8234 97.6553 8.27642 97.526 8.78275 97.3709C9.52891 97.1382 17.0438 93.7773 20.1351 91.1401V91.166C24.2215 87.6732 29.2405 78.0196 29.092 65.1545C28.9312 63.7542 28.8487 62.331 28.8487 60.889V41.11C28.8487 20.0623 46.435 3 68.1288 3Z"/>
</mask>
<path fill-rule="evenodd" clip-rule="evenodd" d="M68.1288 3H376.72C398.414 3 416 20.0623 416 41.11V60.889C416 81.9367 398.414 98.9992 376.72 98.9992H68.1288C58.1692 98.9992 49.0753 95.4029 42.1515 89.4757C38.7656 95.4855 28.1315 97.7734 26.6797 98.0858L26.6373 98.0949C21.8939 99.1032 18.1897 99.0256 16.1644 98.9739C14.0642 98.9266 12.1636 98.89 10.5015 98.8579C5.79451 98.7672 3 98.7133 3 98.5604C3 98.5152 3.22215 98.4889 3.64015 98.4394C4.41597 98.3477 5.86646 98.1761 7.8234 97.6553C7.8234 97.6553 8.27642 97.526 8.78275 97.3709C9.52891 97.1382 17.0438 93.7773 20.1351 91.1401V91.166C24.2215 87.6732 29.2405 78.0196 29.092 65.1545C28.9312 63.7542 28.8487 62.331 28.8487 60.889V41.11C28.8487 20.0623 46.435 3 68.1288 3Z" fill="#1D30DB"/>
<path d="M42.1515 89.4757L43.8215 87.5248L41.4478 85.4928L39.9141 88.2152L42.1515 89.4757ZM26.6797 98.0858L26.1396 95.5751L26.1392 95.5752L26.6797 98.0858ZM26.6373 98.0949L27.1713 100.607L27.1779 100.605L26.6373 98.0949ZM16.1644 98.9739L16.23 96.4066L16.2222 96.4065L16.1644 98.9739ZM10.5015 98.8579L10.452 101.426H10.452L10.5015 98.8579ZM3.64015 98.4394L3.33852 95.8891H3.33851L3.64015 98.4394ZM7.8234 97.6553L8.48394 100.137L8.50596 100.131L8.52788 100.125L7.8234 97.6553ZM8.78275 97.3709L9.53505 99.8263L9.54731 99.8225L8.78275 97.3709ZM20.1351 91.1401H22.7031V85.5736L18.4683 89.1864L20.1351 91.1401ZM20.1351 91.166H17.567V96.7392L21.8036 93.1181L20.1351 91.166ZM29.092 65.1545L31.6599 65.1249L31.6583 64.9929L31.6433 64.8617L29.092 65.1545ZM376.72 0.431926H68.1288V5.56807H376.72V0.431926ZM418.568 41.11C418.568 18.5713 399.758 0.431926 376.72 0.431926V5.56807C397.069 5.56807 413.432 21.5533 413.432 41.11H418.568ZM418.568 60.889V41.11H413.432V60.889H418.568ZM376.72 101.567C399.758 101.567 418.568 83.4276 418.568 60.889H413.432C413.432 80.4457 397.069 96.4311 376.72 96.4311V101.567ZM68.1288 101.567H376.72V96.4311H68.1288V101.567ZM40.4814 91.4266C47.8595 97.7426 57.5423 101.567 68.1288 101.567V96.4311C58.7961 96.4311 50.2912 93.0632 43.8215 87.5248L40.4814 91.4266ZM27.2199 100.596C27.9831 100.432 31.1921 99.7431 34.6796 98.2872C38.0537 96.8787 42.2536 94.5264 44.3889 90.7363L39.9141 88.2152C38.6635 90.4349 35.8534 92.2315 32.701 93.5474C29.6621 94.816 26.8281 95.427 26.1396 95.5751L27.2199 100.596ZM27.1779 100.605L27.2203 100.596L26.1392 95.5752L26.0968 95.5844L27.1779 100.605ZM16.0989 101.541C18.1848 101.594 22.1292 101.679 27.1713 100.607L26.1033 95.583C21.6586 96.5278 18.1947 96.4568 16.23 96.4066L16.0989 101.541ZM10.452 101.426C12.1143 101.458 14.0111 101.494 16.1067 101.541L16.2222 96.4065C14.1173 96.3591 12.2129 96.3224 10.551 96.2903L10.452 101.426ZM0.431926 98.5604C0.431926 99.6339 1.05923 100.29 1.35097 100.536C1.65273 100.791 1.94277 100.917 2.06295 100.966C2.32573 101.073 2.55938 101.119 2.64948 101.136C2.8725 101.179 3.10985 101.202 3.29688 101.218C3.69957 101.251 4.24956 101.277 4.89803 101.299C6.20888 101.344 8.10774 101.38 10.452 101.426L10.551 96.2903C8.18828 96.2448 6.33638 96.209 5.07323 96.1659C4.4347 96.1441 3.99187 96.1218 3.7235 96.0994C3.575 96.0871 3.55725 96.0807 3.60906 96.0905C3.61356 96.0914 3.78257 96.1204 4.00212 96.21C4.10068 96.2501 4.37445 96.3669 4.66535 96.6127C4.94623 96.8499 5.56807 97.4965 5.56807 98.5604H0.431926ZM3.33851 95.8891C3.16247 95.91 2.92057 95.9377 2.73103 95.9701C2.65598 95.9829 2.43485 96.0206 2.19083 96.1062C2.08382 96.1438 1.78827 96.2517 1.47355 96.4868C1.17851 96.7072 0.431926 97.3808 0.431926 98.5604H5.56807C5.56807 99.7287 4.82843 100.392 4.54717 100.602C4.24623 100.827 3.9713 100.925 3.89166 100.953C3.77895 100.992 3.69265 101.012 3.66037 101.02C3.62183 101.028 3.5975 101.033 3.59562 101.033C3.59451 101.033 3.61812 101.029 3.68773 101.02C3.75386 101.012 3.83388 101.003 3.94178 100.99L3.33851 95.8891ZM7.16286 95.1736C5.3829 95.6473 4.07483 95.8021 3.33852 95.8891L3.94178 100.99C4.75711 100.893 6.35001 100.705 8.48394 100.137L7.16286 95.1736ZM8.03046 94.9155C7.79051 94.989 7.56142 95.0569 7.39148 95.1067C7.30684 95.1315 7.23764 95.1515 7.19005 95.1652C7.16627 95.1721 7.14793 95.1774 7.1358 95.1809C7.12974 95.1826 7.12524 95.1839 7.12239 95.1847C7.12097 95.1851 7.11996 95.1854 7.11937 95.1856C7.11908 95.1856 7.1189 95.1857 7.11882 95.1857C7.11878 95.1857 7.11877 95.1857 7.11878 95.1857C7.11879 95.1857 7.11881 95.1857 7.11883 95.1857C7.11884 95.1857 7.11886 95.1857 7.11886 95.1857C7.11889 95.1857 7.11891 95.1857 7.8234 97.6553C8.52788 100.125 8.52791 100.125 8.52794 100.125C8.52795 100.125 8.52798 100.125 8.52801 100.125C8.52806 100.125 8.52811 100.125 8.52817 100.125C8.5283 100.125 8.52845 100.125 8.52863 100.125C8.529 100.124 8.52947 100.124 8.53005 100.124C8.53121 100.124 8.53281 100.123 8.53482 100.123C8.53886 100.122 8.54458 100.12 8.5519 100.118C8.56653 100.114 8.58754 100.108 8.61414 100.1C8.66731 100.085 8.74301 100.063 8.83492 100.036C9.01808 99.9822 9.26866 99.9079 9.53504 99.8263L8.03046 94.9155ZM18.4683 89.1864C17.1777 90.2874 14.7734 91.6694 12.4157 92.8679C11.2734 93.4487 10.202 93.9566 9.37592 94.3312C8.96262 94.5187 8.61725 94.6698 8.36007 94.7783C8.05978 94.9049 7.97357 94.9332 8.01819 94.9193L9.54731 99.8225C9.91703 99.7072 10.6838 99.3777 11.4973 99.0088C12.3867 98.6054 13.5272 98.0646 14.7433 97.4464C17.1024 96.2471 20.0012 94.6299 21.8018 93.0938L18.4683 89.1864ZM22.7031 91.166V91.1401H17.567V91.166H22.7031ZM26.524 65.1842C26.6663 77.4976 21.8318 86.3374 18.4665 89.2138L21.8036 93.1181C26.6112 89.009 31.8148 78.5415 31.6599 65.1249L26.524 65.1842ZM26.2806 60.889C26.2806 62.4291 26.3688 63.9501 26.5406 65.4474L31.6433 64.8617C31.4937 63.5583 31.4167 62.2329 31.4167 60.889H26.2806ZM26.2806 41.11V60.889H31.4167V41.11H26.2806ZM68.1288 0.431926C45.0904 0.431926 26.2806 18.5713 26.2806 41.11H31.4167C31.4167 21.5533 47.7795 5.56807 68.1288 5.56807V0.431926Z" fill="#1D30DB" mask="url(#path-1-outside-1_653_1024)"/>
</svg>
