<?xml version="1.0" encoding="UTF-8"?>
<svg id="Layer_2" data-name="Layer 2" xmlns="http://www.w3.org/2000/svg" viewBox="0 0 865 186.4">
  <defs>
    <style>
      .cls-1 {
        fill: none;
      }

      .cls-2, .cls-3 {
        fill: #fff;
      }

      .cls-4 {
        fill: #1d30db;
      }

      .cls-3 {
        font-family: Bayon-Regular, Bayon;
        font-size: 194.25px;
        isolation: isolate;
      }
    </style>
  </defs>
  <rect class="cls-1" x="206.63" y="27.48" width="700.9" height="149.8"/>
  <text class="cls-3" transform="translate(206.68 162.8)"><tspan x="0" y="0">TRIANGLE</tspan></text>
  <path class="cls-4" d="M209.93,156.58c-2.1,1.5-3.9,3.1-5.9,4.3-2.8,1.7-5.9,2.4-9.1,2.4-10,.1-20,0-30,.1-7.3,0-14.7,.1-22,.1-15.5,0-31-.1-46.4-.2-2.7,0-5.4,.1-8.1-.2-6.1-.8-10.6-4.3-14-9.3-.2-.3-.4-.6-.6-.9-2.3,1.3-4.6,2.7-6.9,4-2.9,1.6-5.7,3.4-8.8,4.7-8.1,3.6-16.9,2.5-23.7-4-4.3-4.2-6.4-9.3-6.4-15.4,.1-16.8-.1-33.6-.1-50.4,0-13.7,.1-27.3,.2-41,0-3.7-.1-7.4,0-11,.1-6.9,3.2-12.2,8.6-16.2,6.6-4.9,13.9-5.5,21.2-2.2,5.1,2.3,9.9,5.3,14.7,8.1,14.6,8.4,29.2,16.8,43.8,25.3,.4,.2,.8,.4,1.3,.7,.9-1.6,1.8-3.2,2.8-4.7,1.9-3.1,3.8-6.2,5.7-9.4,3.3-5.4,8.2-8.4,14.3-9.4,5.6-1,10.5,.9,15,4.2,1,.7,1.8,1.6,2.8,2.5,.6-.5,1.1-1.1,1.8-1.7,4.1-3.7,8.8-5.2,14.3-5.2,14,.1,28-.1,41.9-.1,18.3,0,36.6,.1,54.9,.1,2.6,0,5.2-.1,7.7,.1,6.7,.7,11.5,4.4,15,9.9,4,6.3,4.2,13.1,1.1,19.7-2.3,4.9-5.1,9.6-7.9,14.3-10.4,18.1-20.9,36.2-31.3,54.2-4.3,7.4-8.6,14.8-13,22.2-1.6,2.8-3.5,5.4-6.1,7.3-8.9,6.3-18.9,4.9-26.2-2.2-.3-.3-.5-.6-.6-.7Zm14.9-109.6h-49.9c-4.5,0-7.1,3.5-5.9,7.9,.4,1.3,1.1,2.5,1.7,3.7,3.8,6.7,7.6,13.4,11.4,20,8.6,15,17.1,29.9,25.7,44.9,3.6,6.3,7.2,12.7,10.9,19,.7,1.2,1.5,2.3,2.5,3.2,2.1,2,4.9,2.1,7,0,1.2-1.1,2.1-2.5,2.9-3.9,15.2-26.5,30.4-53.1,45.5-79.6,1.2-2.1,2.4-4.2,3.4-6.3,1.7-3.4,.4-8.3-4.6-8.9-.8-.1-1.6-.1-2.3-.1-16,.1-32.2,.1-48.3,.1Zm-114.9,21.8c-.4-.2-.6-.4-.9-.6-16.9-9.7-33.8-19.3-50.7-29-1.9-1.1-3.8-2.2-5.7-3.1-3.7-1.8-9-.3-9,5.5v100.3c.2,3.3,2.2,5.4,5.5,5.6,1.3,.1,2.8-.3,4-.9,6.1-3.4,12.2-6.8,18.3-10.3,.3-.2,.6-.5,.7-.8,.9-1.9,1.7-3.8,2.7-5.6,9.7-16.9,19.5-33.8,29.3-50.8,1.9-3.5,3.8-6.9,5.8-10.3Zm-22.3,76c.8,1.5,1.8,2.4,3.2,2.7,1.2,.3,2.4,.4,3.7,.4h98.3c4.7,0,7.3-3.6,5.9-8.1-.4-1.2-1-2.4-1.7-3.5-3.8-6.7-7.6-13.4-11.5-20.1-8.5-14.9-17.1-29.8-25.6-44.7-3.6-6.3-7.2-12.7-10.9-19-.8-1.4-1.9-2.6-3.1-3.7-1.3-1.1-2.9-1.4-4.6-.8-1.8,.7-3,2-4,3.6-2.2,3.7-4.3,7.4-6.4,11.1-.1,.1-.1,.2-.1,.4,2.4,1.4,4.7,2.7,7,4.1,4.6,2.8,9.5,5.3,13.8,8.5,10.7,8,10.6,23.3,.1,31.4-2.5,1.9-5.2,3.5-7.9,5-17.2,10-34.5,20-51.8,29.9-1.3,1-2.8,1.9-4.4,2.8Zm35.7-68.5c-8.5,14.9-16.9,29.6-25.3,44.4,.4,0,.7-.1,.9-.3,7.1-4,14.1-8.1,21.2-12.1,6.4-3.7,12.8-7.3,19.1-11,1.2-.7,2.4-1.7,3.3-2.8,1.2-1.4,1.4-3,.8-4.8-.6-1.7-1.9-2.8-3.3-3.7-5.5-3.2-11.1-6.4-16.7-9.7Z"/>
  <g>
    <path class="cls-2" d="M233.03,51.08h-25.2c-.6,0-.9-.3-.9-.9l.2-21.7c0-.5,.3-.8,.8-.8h73.8c.7,0,1,.3,1,.8v21.7c0,.6-.3,.9-.8,.9h-48.9Z"/>
    <path class="cls-2" d="M314.83,162.78h-22c-.5,0-.8-.3-.8-.9l.4-133.5c0-.5,.3-.8,.8-.8h39.3c7,0,13.5,1.7,19.3,5.1s10.6,8,14.1,13.8,5.3,12.3,5.3,19.5c0,4.7-.7,9-2.2,12.9s-3.1,7.1-5.1,9.8c-1.9,2.7-3.7,4.6-5.3,5.9,7,7.8,10.5,16.9,10.5,27.4l.2,39.8c0,.6-.3,.9-.9,.9h-22c-.5,0-.8-.2-.8-.6v-40.2c0-4.7-1.6-8.7-4.9-12.1s-7.3-5.1-12.1-5.1h-12.8l-.2,57.1c-.1,.7-.3,1-.8,1Zm17.6-111.9h-16.7v30.5h16.7c4,0,7.5-1.5,10.7-4.5,3.1-3,4.7-6.6,4.7-10.9s-1.5-7.7-4.6-10.7c-3-2.9-6.6-4.4-10.8-4.4Z"/>
    <path class="cls-2" d="M408.63,162.78h-22c-.6,0-.9-.3-.9-.9l.2-133.5c0-.5,.3-.8,.8-.8h21.8c.5,0,.8,.3,.8,.8l.2,133.5c-.2,.6-.4,.9-.9,.9Z"/>
    <path class="cls-2" d="M419.93,161.88l24.1-133.5c.1-.5,.4-.8,.9-.8h28.2c.5,0,.8,.3,.9,.8l23.1,133.5c.1,.6-.2,.9-.8,.9h-21.5c-.6,0-1-.3-1-.9l-2.1-14.2h-26.5l-2.1,14.2c-.1,.6-.4,.9-.9,.9h-21.6c-.5,0-.7-.3-.7-.9Zm40-89.6l-1.1-7.2-.9,7.2-8.7,54.5h18.7l-8-54.5Z"/>
    <path class="cls-2" d="M530.53,162.78h-19.5c-1,0-1.5-.4-1.5-1.3l-.2-132.3c0-1,.5-1.5,1.5-1.5h17.5l32.8,76.5-.9-75c0-1,.6-1.5,1.7-1.5h19.3c.8,0,1.1,.5,1.1,1.5l.2,132.5c0,.8-.3,1.1-.9,1.1h-17.1l-33.7-71.5,1.4,70c.1,1-.5,1.5-1.7,1.5Z"/>
    <path class="cls-2" d="M635.03,164.68c-7,0-13.3-1.7-19-5.2s-10.3-8.2-13.7-14c-3.4-5.9-5.2-12.5-5.2-19.7v-61.6c0-7.1,1.7-13.5,5.2-19.3,3.4-5.9,8-10.6,13.8-14.1s12-5.3,18.9-5.3,13.6,1.7,19.3,5.1c5.8,3.5,10.3,8.1,13.7,13.9s5.1,12.4,5.1,19.6v8.9c0,.5-.3,.8-.9,.8h-21.8c-.5,0-.8-.3-.8-.8v-7.4c0-4.9-1.4-9-4.2-12.2s-6.3-4.8-10.4-4.8c-3.7,0-7.1,1.6-10,4.6-2.9,3.1-4.4,6.7-4.4,10.9v61.6c0,4.2,1.4,7.9,4.3,11,2.8,3.1,6.2,4.6,10.1,4.6,4.2,0,7.6-1.5,10.4-4.5,2.8-3,4.2-6.7,4.2-11.1v-9.6h-13.6c-.7,0-1-.3-1-.9v-21.7c0-.6,.3-.9,1-.9h36.3c.5,0,.8,.3,.8,.9v32.2c0,7.3-1.7,13.8-5.1,19.7-3.5,5.9-8.1,10.6-13.8,14-5.6,3.6-12.1,5.3-19.2,5.3Z"/>
    <path class="cls-2" d="M750.33,162.78h-62.8c-.5,0-.8-.3-.8-.9l.2-133.3c0-.6,.3-.9,.9-.9h21.6c.6,0,.9,.3,.9,.9l-.2,110.3h40c.6,0,.9,.3,.9,.9v22c.3,.7,0,1-.7,1Z"/>
    <path class="cls-2" d="M827.43,162.78h-62.8c-.5,0-.8-.3-.8-.9l.2-133.5c0-.5,.3-.8,.8-.8h62.4c.5,0,.8,.3,.8,.9v21.7c0,.5-.3,.8-.8,.8h-39.8v30.4h39.8c.5,0,.8,.3,.8,.8l.2,22c0,.5-.3,.8-.8,.8h-40v34h40c.5,0,.8,.3,.8,.9v22.2c0,.5-.3,.7-.8,.7Z"/>
  </g>
</svg>