<svg width="1577" height="335" viewBox="0 0 1577 335" fill="none" xmlns="http://www.w3.org/2000/svg">
<g clip-path="url(#clip0_537_87)">
<path d="M441.588 287.856H402.886C401.881 287.856 401.384 287.299 401.384 286.182V90.5206H356.815C355.698 90.5206 355.141 89.9636 355.141 88.8464L355.477 50.4821C355.477 49.5922 355.918 49.144 356.815 49.144H487.162C488.388 49.144 489.004 49.5922 489.004 50.4821V88.8464C489.004 89.9636 488.556 90.5206 487.66 90.5206H442.593L442.93 286.182C442.93 287.299 442.481 287.856 441.591 287.856H441.588Z" fill="white"/>
<path d="M545.814 287.856H506.941C506.044 287.856 505.603 287.299 505.603 286.182L506.272 50.4821C506.272 49.5922 506.713 49.144 507.61 49.144H576.971C589.367 49.144 600.758 52.1628 611.15 58.1905C621.533 64.2215 629.825 72.3156 636.025 82.4793C642.225 92.643 645.327 104.141 645.327 116.984C645.327 125.362 644.038 132.958 641.473 139.764C638.903 146.582 635.916 152.333 632.508 157.02C629.1 161.709 626.005 165.17 623.214 167.407C635.61 181.147 641.81 197.286 641.81 215.823L642.146 286.178C642.146 287.296 641.586 287.853 640.472 287.853H601.598C600.702 287.853 600.26 287.516 600.26 286.847V215.82C600.26 207.555 597.357 200.407 591.546 194.379C585.735 188.351 578.592 185.332 570.105 185.332H547.488L547.152 286.178C547.152 287.296 546.704 287.853 545.814 287.853V287.856ZM576.971 90.1844H547.488V144.124H576.971C584.004 144.124 590.29 141.504 595.821 136.251C601.348 131.004 604.113 124.581 604.113 116.988C604.113 109.395 601.43 103.449 596.068 98.1466C590.705 92.844 584.341 90.1844 576.971 90.1844Z" fill="white"/>
<path d="M711.527 287.856H672.654C671.537 287.856 670.979 287.299 670.979 286.182L671.316 50.4821C671.316 49.5922 671.757 49.144 672.654 49.144H711.191C712.081 49.144 712.529 49.5922 712.529 50.4821L712.865 286.182C712.865 287.299 712.417 287.856 711.527 287.856Z" fill="white"/>
<path d="M731.468 286.182L774.023 50.4821C774.244 49.5922 774.807 49.144 775.7 49.144H825.453C826.35 49.144 826.907 49.5922 827.131 50.4821L868.008 286.182C868.12 287.299 867.672 287.856 866.67 287.856H828.641C827.517 287.856 826.904 287.299 826.798 286.182L823.11 261.053H776.37L772.681 286.182C772.569 287.299 772.012 287.856 771.007 287.856H732.81C731.913 287.856 731.465 287.299 731.465 286.182H731.468ZM802.174 128.045L800.16 115.317L798.65 128.045L783.242 224.369H816.241L802.171 128.045H802.174Z" fill="white"/>
<path d="M926.835 287.856H892.491C890.698 287.856 889.808 287.078 889.808 285.513L889.472 51.8235C889.472 50.0406 890.362 49.1475 892.155 49.1475H923.147L981.117 184.334L979.439 51.8235C979.439 50.0406 980.445 49.1475 982.458 49.1475H1016.47C1017.81 49.1475 1018.48 50.0439 1018.48 51.8235L1018.81 285.849C1018.81 287.187 1018.25 287.856 1017.14 287.856H986.981L927.508 161.545L930.019 285.17C930.019 286.963 928.958 287.853 926.835 287.853V287.856Z" fill="white"/>
<path d="M1111.47 291.208C1099.07 291.208 1087.91 288.133 1077.97 281.99C1067.91 275.853 1059.84 267.588 1053.76 257.2C1047.67 246.812 1044.63 235.195 1044.63 222.355V113.636C1044.63 101.133 1047.7 89.7429 1053.85 79.4638C1059.87 69.0826 1067.97 60.7908 1078.13 54.5918C1088.3 48.3927 1099.41 45.2915 1111.48 45.2915C1123.54 45.2915 1135.49 48.3103 1145.66 54.3347C1155.82 60.4843 1163.89 68.6904 1169.86 78.9629C1175.84 89.2353 1178.83 100.79 1178.83 113.633V129.379C1178.83 130.276 1178.27 130.724 1177.15 130.724H1138.62C1137.72 130.724 1137.28 130.276 1137.28 129.379V116.315C1137.28 107.608 1134.82 100.404 1129.9 94.7094C1124.99 89.0145 1118.84 86.1605 1111.47 86.1605C1104.88 86.1605 1099.02 88.8992 1093.88 94.3699C1088.74 99.8439 1086.17 106.264 1086.17 113.633V222.352C1086.17 229.84 1088.68 236.286 1093.71 241.704C1098.74 247.122 1104.66 249.824 1111.47 249.824C1118.84 249.824 1124.99 247.171 1129.9 241.869C1134.82 236.566 1137.28 230.061 1137.28 222.352V205.436H1113.32C1112.09 205.436 1111.48 204.879 1111.48 203.758V165.4C1111.48 164.283 1112.09 163.723 1113.32 163.723H1177.49C1178.38 163.723 1178.83 164.283 1178.83 165.4V222.352C1178.83 235.195 1175.81 246.812 1169.78 257.197C1163.64 267.585 1155.54 275.847 1145.49 281.99C1135.43 288.126 1124.09 291.201 1111.48 291.201L1111.47 291.208Z" fill="white"/>
<path d="M1315.22 287.856H1204.3C1203.41 287.856 1202.97 287.299 1202.97 286.182L1203.3 50.8182C1203.3 49.7043 1203.86 49.144 1204.98 49.144H1243.18C1244.3 49.144 1244.86 49.7043 1244.86 50.8182L1244.52 245.642H1315.22C1316.33 245.642 1316.89 246.202 1316.89 247.316V286.185C1316.89 287.302 1316.33 287.859 1315.22 287.859L1315.22 287.856Z" fill="white"/>
<path d="M1451.44 287.856H1340.53C1339.63 287.856 1339.19 287.299 1339.19 286.182L1339.53 50.4821C1339.53 49.5922 1339.97 49.144 1340.86 49.144H1451.11C1452 49.144 1452.44 49.7043 1452.44 50.8182V89.1826C1452.44 90.079 1452 90.5206 1451.11 90.5206H1380.74V144.127H1451.11C1452 144.127 1452.44 144.575 1452.44 145.465L1452.78 184.334C1452.78 185.23 1452.33 185.672 1451.44 185.672H1380.74V245.642H1451.44C1452.33 245.642 1452.78 246.202 1452.78 247.316V286.518C1452.78 287.414 1452.33 287.856 1451.44 287.856H1451.44Z" fill="white"/>
<path d="M364.208 275.698C360.493 278.401 357.451 281.103 353.905 283.298C349.007 286.337 343.601 287.52 337.86 287.52C320.295 287.688 302.731 287.52 285.167 287.688C272.332 287.688 259.494 287.856 246.659 287.856C219.467 287.856 192.447 287.688 165.255 287.52C160.525 287.52 155.795 287.688 151.069 287.012C140.261 285.661 132.489 279.413 126.412 270.633C126.075 270.126 125.736 269.621 125.228 268.946C121.174 271.309 117.12 273.675 113.237 275.87C108.171 278.74 103.106 281.779 97.8682 284.145C83.5108 290.562 68.1449 288.535 56.3221 277.053C48.7216 269.621 45.1751 260.842 45.1751 250.032C45.3432 220.48 45.007 191.097 44.8389 161.545C44.8389 137.566 45.007 113.587 45.1751 89.7726C45.1751 83.356 45.007 76.9395 45.1751 70.3515C45.3432 58.362 50.7486 48.9036 60.2048 41.9795C71.8595 33.368 84.526 32.353 97.5287 38.2653C106.481 42.3189 114.757 47.5524 123.369 52.4497C149.042 67.1416 174.543 82.0015 200.047 96.6934C200.723 97.0296 201.399 97.5371 202.243 97.8765C203.93 95.0061 205.453 92.3036 207.14 89.6012C210.351 84.1964 213.726 78.6235 217.104 73.222C222.846 63.7636 231.462 58.5301 242.101 56.6714C251.897 54.984 260.509 58.1907 268.449 63.9316C270.137 65.1148 271.66 66.634 273.347 68.1533C274.359 67.1416 275.374 66.1265 276.386 65.2828C283.479 58.8663 291.923 56.1639 301.551 56.1639C326.04 56.3319 350.53 55.9958 375.019 55.9958C407.109 55.9958 439.198 56.1639 471.285 56.1639C475.847 56.1639 480.405 55.9958 484.795 56.5C496.45 57.8512 505.062 64.2678 511.144 73.8943C518.237 85.0401 518.405 96.8615 513.171 108.343C509.285 116.955 504.219 125.062 499.321 133.337C481.081 165.084 462.673 196.663 444.433 228.413C436.832 241.417 429.231 254.251 421.631 267.252C418.76 272.149 415.55 276.71 410.823 279.917C395.286 290.895 377.722 288.528 364.884 276.203C364.716 276.203 364.376 275.867 364.208 275.695V275.698ZM390.385 83.5241H302.731C294.794 83.5241 290.233 89.7726 292.428 97.3723C293.103 99.5672 294.287 101.762 295.467 103.789C302.052 115.442 308.809 127.264 315.566 138.914C330.595 165.087 345.628 191.433 360.658 217.606C367.075 228.752 373.325 239.898 379.742 250.876C380.925 252.903 382.445 254.929 384.132 256.449C387.847 259.995 392.745 259.995 396.463 256.449C398.49 254.422 400.177 252.059 401.528 249.693C428.213 203.254 454.729 156.644 481.414 110.037C483.441 106.323 485.636 102.606 487.495 98.8916C490.366 92.9825 488.17 84.3678 479.387 83.356C478.035 83.188 476.684 83.188 475.332 83.188C446.957 83.5241 418.585 83.5241 390.381 83.5241H390.385ZM188.729 121.691C188.053 121.355 187.546 121.015 187.041 120.679C157.318 103.792 127.76 86.7373 98.0363 69.8473C94.6579 67.9885 91.4509 66.1331 87.9044 64.4425C81.4871 61.2325 72.199 63.9349 72.0276 74.237V249.861C72.5351 255.602 75.9135 259.487 81.6552 259.655C84.0184 259.823 86.553 259.148 88.7482 257.968C99.5557 252.059 110.199 245.979 120.838 239.898C121.346 239.562 121.85 239.054 122.189 238.379C123.709 235.169 125.06 231.623 126.919 228.584C143.976 198.864 161.204 169.309 178.261 139.589C181.975 133.509 185.354 127.768 188.732 121.687L188.729 121.691ZM149.714 254.929C151.066 257.464 152.925 259.151 155.456 259.659C157.483 260.166 159.678 260.334 161.873 260.334H334.313C342.589 260.334 347.148 253.918 344.617 246.15C343.941 243.955 342.758 241.928 341.746 240.069C334.989 228.248 328.403 216.595 321.647 204.777C306.617 178.603 291.752 152.426 276.722 126.252C270.305 115.106 264.056 103.96 257.638 92.9826C256.287 90.6196 254.26 88.4214 252.233 86.3979C250.038 84.3711 247.167 84.0349 244.125 85.0467C240.915 86.2298 238.891 88.5928 237.2 91.2952C233.314 97.7118 229.767 104.3 226.053 110.716C225.885 110.884 225.885 111.052 225.885 111.392C230.107 113.755 234.161 116.121 238.215 118.484C246.323 123.381 254.936 127.771 262.365 133.344C281.113 147.36 280.944 174.21 262.533 188.565C258.143 191.943 253.413 194.646 248.683 197.348C218.452 214.911 188.221 232.305 157.819 249.867C155.116 251.894 152.414 253.413 149.711 254.933L149.714 254.929ZM212.203 134.863C197.341 160.869 182.48 186.707 167.786 212.713C168.462 212.713 168.969 212.544 169.474 212.205C181.804 205.113 194.299 198.021 206.63 190.928C217.777 184.512 229.092 178.095 240.239 171.679C242.434 170.328 244.461 168.64 245.98 166.781C248.008 164.418 248.515 161.548 247.332 158.338C246.149 155.468 244.122 153.273 241.422 151.753C231.963 146.18 222.17 140.608 212.203 134.867V134.863Z" fill="#1D30DB"/>
<path d="M422.712 88.8469L418.262 126.717C406.726 68.5491 418.002 102.659 403.925 86.8398L401.384 90.5211H356.815C355.698 90.5211 355.141 89.9641 355.141 88.8469L355.477 50.4826C355.477 49.5927 355.918 49.1445 356.815 49.1445H487.162C488.388 49.1445 489.004 49.5927 489.004 50.4826V88.8469C489.004 89.9641 488.556 90.5211 487.66 90.5211H442.593L434.083 103.812C426.997 100.846 438.368 105.131 426.997 94.7493L422.712 88.8469Z" fill="white"/>
<path d="M545.814 287.856H506.941C506.044 287.856 505.603 287.299 505.603 286.182L506.272 50.4826C506.272 49.5927 506.713 49.1445 507.61 49.1445H576.971C589.367 49.1445 600.758 52.1633 611.15 58.191C621.533 64.222 629.825 72.3161 636.025 82.4798C642.225 92.6435 645.327 104.142 645.327 116.985C645.327 125.362 644.038 132.959 641.473 139.764C638.903 146.583 635.916 152.334 632.508 157.02C629.1 161.71 626.005 165.17 623.214 167.408C635.61 181.147 641.81 197.286 641.81 215.824L642.146 286.179C642.146 287.296 641.586 287.853 640.472 287.853H601.598C600.702 287.853 600.26 287.517 600.26 286.848V215.821C600.26 207.555 597.357 200.407 591.546 194.379C585.735 188.352 578.592 185.333 570.105 185.333H547.488L547.152 286.179C547.152 287.296 546.704 287.853 545.814 287.853V287.856ZM576.971 90.1849H547.488V144.124H576.971C584.004 144.124 590.29 141.504 595.821 136.251C601.348 131.004 604.113 124.581 604.113 116.988C604.113 109.395 601.43 103.45 596.068 98.1471C590.705 92.8445 584.341 90.1849 576.971 90.1849Z" fill="white"/>
<path d="M711.527 287.856H672.654C671.537 287.856 670.979 287.299 670.979 286.182L671.316 50.4826C671.316 49.5927 671.757 49.1445 672.654 49.1445H711.191C712.081 49.1445 712.529 49.5927 712.529 50.4826L712.865 286.182C712.865 287.299 712.417 287.856 711.527 287.856Z" fill="white"/>
<path d="M731.468 286.182L774.023 50.4826C774.244 49.5927 774.807 49.1445 775.7 49.1445H825.453C826.35 49.1445 826.907 49.5927 827.131 50.4826L868.008 286.182C868.12 287.299 867.672 287.856 866.67 287.856H828.641C827.517 287.856 826.904 287.299 826.798 286.182L823.11 261.053H776.37L772.681 286.182C772.569 287.299 772.012 287.856 771.007 287.856H732.81C731.913 287.856 731.465 287.299 731.465 286.182H731.468ZM802.174 128.045L800.16 115.317L798.65 128.045L783.242 224.369H816.241L802.171 128.045H802.174Z" fill="white"/>
<path d="M926.835 287.856H892.491C890.698 287.856 889.808 287.079 889.808 285.513L889.472 51.824C889.472 50.0411 890.362 49.1479 892.155 49.1479H923.147L981.117 184.334L979.439 51.824C979.439 50.0411 980.445 49.1479 982.458 49.1479H1016.47C1017.81 49.1479 1018.48 50.0444 1018.48 51.824L1018.81 285.849C1018.81 287.187 1018.25 287.856 1017.14 287.856H986.981L927.508 161.545L930.019 285.17C930.019 286.963 928.958 287.853 926.835 287.853V287.856Z" fill="white"/>
<path d="M1111.47 291.208C1099.07 291.208 1087.91 288.133 1077.97 281.99C1067.91 275.854 1059.84 267.588 1053.76 257.201C1047.67 246.813 1044.63 235.196 1044.63 222.356V113.637C1044.63 101.133 1047.7 89.7433 1053.85 79.4643C1059.87 69.0831 1067.97 60.7913 1078.13 54.5922C1088.3 48.3932 1099.41 45.292 1111.48 45.292C1123.54 45.292 1135.49 48.3108 1145.66 54.3352C1155.82 60.4848 1163.89 68.6909 1169.86 78.9634C1175.84 89.2358 1178.83 100.79 1178.83 113.633V129.38C1178.83 130.276 1178.27 130.724 1177.15 130.724H1138.62C1137.72 130.724 1137.28 130.276 1137.28 129.38V116.316C1137.28 107.609 1134.82 100.405 1129.9 94.7099C1124.99 89.015 1118.84 86.161 1111.47 86.161C1104.88 86.161 1099.02 88.8997 1093.88 94.3704C1088.74 99.8444 1086.17 106.264 1086.17 113.633V222.353C1086.17 229.84 1088.68 236.286 1093.71 241.704C1098.74 247.122 1104.66 249.825 1111.47 249.825C1118.84 249.825 1124.99 247.172 1129.9 241.869C1134.82 236.567 1137.28 230.061 1137.28 222.353V205.436H1113.32C1112.09 205.436 1111.48 204.879 1111.48 203.759V165.401C1111.48 164.284 1112.09 163.723 1113.32 163.723H1177.49C1178.38 163.723 1178.83 164.284 1178.83 165.401V222.353C1178.83 235.196 1175.81 246.813 1169.78 257.197C1163.64 267.585 1155.54 275.847 1145.49 281.99C1135.43 288.127 1124.09 291.201 1111.48 291.201L1111.47 291.208Z" fill="white"/>
<path d="M1315.22 287.856H1204.3C1203.41 287.856 1202.97 287.299 1202.97 286.182L1203.3 50.8187C1203.3 49.7048 1203.86 49.1445 1204.98 49.1445H1243.18C1244.3 49.1445 1244.86 49.7048 1244.86 50.8187L1244.52 245.643H1315.22C1316.33 245.643 1316.89 246.203 1316.89 247.317V286.185C1316.89 287.303 1316.33 287.86 1315.22 287.86L1315.22 287.856Z" fill="white"/>
<path d="M1451.44 287.856H1340.53C1339.63 287.856 1339.19 287.299 1339.19 286.182L1339.53 50.4826C1339.53 49.5927 1339.97 49.1445 1340.86 49.1445H1451.11C1452 49.1445 1452.44 49.7048 1452.44 50.8187V89.183C1452.44 90.0795 1452 90.5211 1451.11 90.5211H1380.74V144.128H1451.11C1452 144.128 1452.44 144.576 1452.44 145.466L1452.78 184.334C1452.78 185.231 1452.33 185.672 1451.44 185.672H1380.74V245.643H1451.44C1452.33 245.643 1452.78 246.203 1452.78 247.317V286.518C1452.78 287.415 1452.33 287.856 1451.44 287.856H1451.44Z" fill="white"/>
</g>
<defs>
<clipPath id="clip0_537_87">
<rect width="1577" height="335" fill="white"/>
</clipPath>
</defs>
</svg>
