<svg width="1408" height="257" viewBox="0 0 1408 257" fill="none" xmlns="http://www.w3.org/2000/svg">
<path d="M396.75 253.324H358.048C357.043 253.324 356.546 252.767 356.546 251.65V55.9889H311.977C310.86 55.9889 310.303 55.4319 310.303 54.3147L310.639 15.9504C310.639 15.0605 311.08 14.6123 311.977 14.6123H442.324C443.55 14.6123 444.166 15.0605 444.166 15.9504V54.3147C444.166 55.4319 443.718 55.9889 442.822 55.9889H397.755L398.092 251.65C398.092 252.767 397.643 253.324 396.753 253.324H396.75Z" fill="white"/>
<path d="M500.975 253.324H462.102C461.205 253.324 460.764 252.767 460.764 251.65L461.433 15.9504C461.433 15.0605 461.874 14.6123 462.771 14.6123H532.132C544.528 14.6123 555.919 17.6311 566.311 23.6588C576.694 29.6898 584.986 37.7839 591.186 47.9476C597.386 58.1113 600.488 69.6093 600.488 82.4523C600.488 90.8303 599.199 98.4263 596.634 105.232C594.064 112.05 591.077 117.801 587.669 122.488C584.261 127.177 581.166 130.638 578.375 132.875C590.771 146.615 596.971 162.754 596.971 181.291L597.307 251.646C597.307 252.764 596.747 253.321 595.633 253.321H556.759C555.863 253.321 555.421 252.984 555.421 252.315V181.288C555.421 173.023 552.518 165.875 546.707 159.847C540.896 153.819 533.753 150.8 525.266 150.8H502.649L502.313 251.646C502.313 252.764 501.865 253.321 500.975 253.321V253.324ZM532.132 55.6527H502.649V109.592H532.132C539.165 109.592 545.451 106.972 550.982 101.719C556.509 96.4723 559.274 90.0493 559.274 82.4563C559.274 74.8633 556.591 68.9173 551.229 63.6149C545.866 58.3123 539.502 55.6527 532.132 55.6527Z" fill="white"/>
<path d="M666.689 253.324H627.816C626.699 253.324 626.141 252.767 626.141 251.65L626.478 15.9504C626.478 15.0605 626.919 14.6123 627.816 14.6123H666.353C667.243 14.6123 667.691 15.0605 667.691 15.9504L668.027 251.65C668.027 252.767 667.579 253.324 666.689 253.324Z" fill="white"/>
<path d="M686.63 251.65L729.185 15.9504C729.406 15.0605 729.969 14.6123 730.862 14.6123H780.615C781.512 14.6123 782.069 15.0605 782.293 15.9504L823.17 251.65C823.282 252.767 822.834 253.324 821.832 253.324H783.803C782.679 253.324 782.066 252.767 781.96 251.65L778.272 226.521H731.532L727.843 251.65C727.731 252.767 727.174 253.324 726.169 253.324H687.972C687.075 253.324 686.627 252.767 686.627 251.65H686.63ZM757.336 93.5133L755.322 80.7853L753.812 93.5133L738.404 189.837H771.403L757.333 93.5133H757.336Z" fill="white"/>
<path d="M881.996 253.325H847.652C845.859 253.325 844.969 252.547 844.969 250.982L844.633 17.2922C844.633 15.5093 845.523 14.6162 847.316 14.6162H878.308L936.278 149.803L934.6 17.2922C934.6 15.5093 935.606 14.6162 937.619 14.6162H971.631C972.971 14.6162 973.641 15.5126 973.641 17.2922L973.971 251.318C973.971 252.656 973.411 253.325 972.301 253.325H942.142L882.669 127.014L885.18 250.639C885.18 252.432 884.119 253.322 881.996 253.322V253.325Z" fill="white"/>
<path d="M1066.63 256.676C1054.23 256.676 1043.07 253.601 1033.13 247.458C1023.07 241.321 1015 233.056 1008.92 222.668C1002.83 212.28 999.791 200.663 999.791 187.823V79.1043C999.791 66.6013 1002.86 55.2112 1009.01 44.9321C1015.03 34.5509 1023.13 26.2591 1033.29 20.0601C1043.46 13.861 1054.57 10.7598 1066.64 10.7598C1078.7 10.7598 1090.65 13.7786 1100.82 19.803C1110.98 25.9526 1119.05 34.1587 1125.02 44.4312C1131 54.7036 1133.99 66.2583 1133.99 79.1013V94.8473C1133.99 95.7443 1133.43 96.1923 1132.31 96.1923H1093.78C1092.88 96.1923 1092.44 95.7443 1092.44 94.8473V81.7833C1092.44 73.0763 1089.98 65.8723 1085.06 60.1777C1080.15 54.4828 1074 51.6288 1066.63 51.6288C1060.04 51.6288 1054.18 54.3675 1049.04 59.8382C1043.9 65.3122 1041.33 71.7323 1041.33 79.1013V187.82C1041.33 195.308 1043.84 201.754 1048.87 207.172C1053.9 212.59 1059.82 215.292 1066.63 215.292C1074 215.292 1080.15 212.639 1085.06 207.337C1089.98 202.034 1092.44 195.529 1092.44 187.82V170.904H1068.48C1067.25 170.904 1066.64 170.347 1066.64 169.226V130.868C1066.64 129.751 1067.25 129.191 1068.48 129.191H1132.65C1133.54 129.191 1133.99 129.751 1133.99 130.868V187.82C1133.99 200.663 1130.97 212.28 1124.94 222.665C1118.8 233.053 1110.7 241.315 1100.65 247.458C1090.59 253.594 1079.25 256.669 1066.64 256.669L1066.63 256.676Z" fill="white"/>
<path d="M1270.38 253.324H1159.46C1158.57 253.324 1158.13 252.767 1158.13 251.65L1158.46 16.2865C1158.46 15.1726 1159.02 14.6123 1160.14 14.6123H1198.34C1199.46 14.6123 1200.02 15.1726 1200.02 16.2865L1199.68 211.11H1270.38C1271.49 211.11 1272.05 211.67 1272.05 212.784V251.653C1272.05 252.77 1271.49 253.327 1270.38 253.327V253.324Z" fill="white"/>
<path d="M1406.6 253.324H1295.69C1294.79 253.324 1294.35 252.767 1294.35 251.65L1294.69 15.9504C1294.69 15.0605 1295.13 14.6123 1296.02 14.6123H1406.27C1407.16 14.6123 1407.6 15.1726 1407.6 16.2865V54.6509C1407.6 55.5473 1407.16 55.9889 1406.27 55.9889H1335.9V109.595H1406.27C1407.16 109.595 1407.6 110.043 1407.6 110.933L1407.94 149.802C1407.94 150.698 1407.49 151.14 1406.6 151.14H1335.9V211.11H1406.6C1407.49 211.11 1407.94 211.67 1407.94 212.784V251.986C1407.94 252.882 1407.49 253.324 1406.6 253.324Z" fill="white"/>
<path d="M319.369 241.167C315.654 243.87 312.612 246.572 309.066 248.767C304.168 251.806 298.762 252.989 293.021 252.989C275.456 253.157 257.892 252.989 240.328 253.157C227.493 253.157 214.655 253.325 201.82 253.325C174.628 253.325 147.608 253.157 120.416 252.989C115.686 252.989 110.956 253.157 106.23 252.481C95.4221 251.13 87.6501 244.882 81.5731 236.102C81.2361 235.595 80.8971 235.09 80.3891 234.415C76.3351 236.778 72.2811 239.144 68.3981 241.339C63.3321 244.209 58.2671 247.248 53.0293 249.614C38.6719 256.031 23.306 254.004 11.4832 242.522C3.8827 235.09 0.336197 226.311 0.336197 215.501C0.504297 185.949 0.1681 156.566 0 127.014C0 103.035 0.168097 79.0558 0.336197 55.2414C0.336197 48.8248 0.168097 42.4083 0.336197 35.8203C0.504297 23.8308 5.9097 14.3724 15.3659 7.44825C27.0206 -1.16325 39.6871 -2.17825 52.6898 3.73405C61.6421 7.78765 69.9181 13.0212 78.5301 17.9185C104.203 32.6104 129.704 47.4703 155.208 62.1622C155.884 62.4984 156.56 63.0059 157.404 63.3453C159.091 60.4749 160.614 57.7724 162.301 55.07C165.512 49.6652 168.887 44.0923 172.265 38.6908C178.007 29.2324 186.623 23.9989 197.262 22.1402C207.058 20.4528 215.67 23.6595 223.61 29.4004C225.298 30.5836 226.821 32.1028 228.508 33.6221C229.52 32.6104 230.535 31.5953 231.547 30.7516C238.64 24.3351 247.084 21.6327 256.712 21.6327C281.201 21.8007 305.691 21.4646 330.18 21.4646C362.27 21.4646 394.359 21.6327 426.446 21.6327C431.008 21.6327 435.566 21.4646 439.956 21.9688C451.611 23.32 460.223 29.7366 466.305 39.3631C473.398 50.5089 473.566 62.3303 468.332 73.8118C464.446 82.4238 459.38 90.5308 454.482 98.8058C436.242 130.553 417.834 162.132 399.594 193.882C391.993 206.886 384.392 219.72 376.792 232.721C373.921 237.618 370.711 242.179 365.984 245.386C350.447 256.364 332.883 253.997 320.045 241.672C319.877 241.672 319.537 241.336 319.369 241.164V241.167ZM345.546 48.9929H257.892C249.955 48.9929 245.394 55.2414 247.589 62.8411C248.264 65.036 249.448 67.2308 250.628 69.2578C257.213 80.9108 263.97 92.7328 270.727 104.383C285.756 130.556 300.789 156.902 315.819 183.075C322.236 194.221 328.486 205.367 334.903 216.345C336.086 218.372 337.606 220.398 339.293 221.918C343.008 225.464 347.906 225.464 351.624 221.918C353.651 219.891 355.338 217.528 356.689 215.162C383.374 168.723 409.89 122.113 436.575 75.5058C438.602 71.7918 440.797 68.0748 442.656 64.3604C445.527 58.4513 443.331 49.8366 434.548 48.8248C433.196 48.6568 431.845 48.6568 430.493 48.6568C402.118 48.9929 373.746 48.9929 345.542 48.9929H345.546ZM143.89 87.1598C143.214 86.8238 142.707 86.4838 142.202 86.1478C112.479 69.2608 82.9211 52.2061 53.1974 35.3161C49.819 33.4573 46.612 31.6019 43.0655 29.9113C36.6482 26.7013 27.3601 29.4037 27.1887 39.7058V215.33C27.6962 221.071 31.0746 224.956 36.8163 225.124C39.1795 225.292 41.7141 224.617 43.9093 223.437C54.7168 217.528 65.3601 211.448 75.9991 205.367C76.5071 205.031 77.0111 204.523 77.3501 203.848C78.8701 200.638 80.2211 197.092 82.0801 194.053C99.1371 164.333 116.365 134.778 133.422 105.058C137.136 98.9778 140.515 93.2368 143.893 87.1558L143.89 87.1598ZM104.875 220.398C106.227 222.933 108.086 224.62 110.617 225.128C112.644 225.635 114.839 225.803 117.034 225.803H289.474C297.75 225.803 302.309 219.387 299.778 211.619C299.102 209.424 297.919 207.397 296.907 205.538C290.15 193.717 283.564 182.064 276.808 170.246C261.778 144.072 246.913 117.895 231.883 91.7208C225.466 80.5748 219.217 69.4288 212.799 58.4514C211.448 56.0884 209.421 53.8902 207.394 51.8667C205.199 49.8399 202.328 49.5037 199.286 50.5155C196.076 51.6986 194.052 54.0616 192.361 56.764C188.475 63.1806 184.928 69.7688 181.214 76.1848C181.046 76.3528 181.046 76.5208 181.046 76.8608C185.268 79.2238 189.322 81.5898 193.376 83.9528C201.484 88.8498 210.097 93.2398 217.526 98.8128C236.274 112.829 236.105 139.679 217.694 154.034C213.304 157.412 208.574 160.115 203.844 162.817C173.613 180.38 143.382 197.774 112.98 215.336C110.277 217.363 107.575 218.882 104.872 220.402L104.875 220.398ZM167.364 100.332C152.502 126.338 137.641 152.176 122.947 178.182C123.623 178.182 124.13 178.013 124.635 177.674C136.965 170.582 149.46 163.49 161.791 156.397C172.938 149.981 184.253 143.564 195.4 137.148C197.595 135.797 199.622 134.109 201.141 132.25C203.169 129.887 203.676 127.017 202.493 123.807C201.31 120.937 199.283 118.742 196.583 117.222C187.124 111.649 177.331 106.077 167.364 100.336V100.332Z" fill="#1D30DB"/>
<path d="M377.874 54.3157L373.424 92.1858C361.888 34.0179 373.164 68.1278 359.087 52.3086L356.546 55.9899H311.977C310.86 55.9899 310.303 55.4329 310.303 54.3157L310.639 15.9514C310.639 15.0615 311.08 14.6133 311.977 14.6133H442.324C443.55 14.6133 444.166 15.0615 444.166 15.9514V54.3157C444.166 55.4329 443.718 55.9899 442.822 55.9899H397.755L389.245 69.2808C382.159 66.3148 393.53 70.5998 382.159 60.2181L377.874 54.3157Z" fill="white"/>
<path d="M500.975 253.325H462.102C461.205 253.325 460.764 252.768 460.764 251.651L461.433 15.9514C461.433 15.0615 461.874 14.6133 462.771 14.6133H532.132C544.528 14.6133 555.919 17.6321 566.311 23.6598C576.694 29.6908 584.986 37.7849 591.186 47.9486C597.386 58.1123 600.488 69.6108 600.488 82.4538C600.488 90.8308 599.199 98.4278 596.634 105.233C594.064 112.052 591.077 117.803 587.669 122.489C584.261 127.179 581.166 130.639 578.375 132.877C590.771 146.616 596.971 162.755 596.971 181.293L597.307 251.648C597.307 252.765 596.747 253.322 595.633 253.322H556.759C555.863 253.322 555.421 252.986 555.421 252.317V181.29C555.421 173.024 552.518 165.876 546.707 159.848C540.896 153.821 533.753 150.802 525.266 150.802H502.649L502.313 251.648C502.313 252.765 501.865 253.322 500.975 253.322V253.325ZM532.132 55.6537H502.649V109.593H532.132C539.165 109.593 545.451 106.973 550.982 101.72C556.509 96.4728 559.274 90.0498 559.274 82.4568C559.274 74.8638 556.591 68.9188 551.229 63.6159C545.866 58.3133 539.502 55.6537 532.132 55.6537Z" fill="white"/>
<path d="M666.689 253.325H627.816C626.699 253.325 626.141 252.768 626.141 251.651L626.478 15.9514C626.478 15.0615 626.919 14.6133 627.816 14.6133H666.353C667.243 14.6133 667.691 15.0615 667.691 15.9514L668.027 251.651C668.027 252.768 667.579 253.325 666.689 253.325Z" fill="white"/>
<path d="M686.63 251.651L729.185 15.9514C729.406 15.0615 729.969 14.6133 730.862 14.6133H780.615C781.512 14.6133 782.069 15.0615 782.293 15.9514L823.17 251.651C823.282 252.768 822.834 253.325 821.832 253.325H783.803C782.679 253.325 782.066 252.768 781.96 251.651L778.272 226.522H731.532L727.843 251.651C727.731 252.768 727.174 253.325 726.169 253.325H687.972C687.075 253.325 686.627 252.768 686.627 251.651H686.63ZM757.336 93.5138L755.322 80.7858L753.812 93.5138L738.404 189.838H771.403L757.333 93.5138H757.336Z" fill="white"/>
<path d="M881.996 253.324H847.652C845.859 253.324 844.969 252.547 844.969 250.981L844.633 17.2923C844.633 15.5094 845.523 14.6162 847.316 14.6162H878.308L936.278 149.802L934.6 17.2923C934.6 15.5094 935.606 14.6162 937.619 14.6162H971.631C972.971 14.6162 973.641 15.5127 973.641 17.2923L973.971 251.317C973.971 252.655 973.411 253.324 972.301 253.324H942.142L882.669 127.013L885.18 250.638C885.18 252.431 884.119 253.321 881.996 253.321V253.324Z" fill="white"/>
<path d="M1066.63 256.677C1054.23 256.677 1043.07 253.602 1033.13 247.459C1023.07 241.323 1015 233.057 1008.92 222.67C1002.83 212.282 999.791 200.665 999.791 187.825V79.1057C999.791 66.6017 1002.86 55.212 1009.01 44.933C1015.03 34.5518 1023.13 26.26 1033.29 20.0609C1043.46 13.8619 1054.57 10.7607 1066.64 10.7607C1078.7 10.7607 1090.65 13.7795 1100.82 19.8039C1110.98 25.9535 1119.05 34.1596 1125.02 44.4321C1131 54.7045 1133.99 66.2587 1133.99 79.1017V94.8487C1133.99 95.7447 1133.43 96.1927 1132.31 96.1927H1093.78C1092.88 96.1927 1092.44 95.7447 1092.44 94.8487V81.7847C1092.44 73.0777 1089.98 65.8737 1085.06 60.1786C1080.15 54.4837 1074 51.6297 1066.63 51.6297C1060.04 51.6297 1054.18 54.3684 1049.04 59.8391C1043.9 65.3131 1041.33 71.7327 1041.33 79.1017V187.822C1041.33 195.309 1043.84 201.755 1048.87 207.173C1053.9 212.591 1059.82 215.294 1066.63 215.294C1074 215.294 1080.15 212.641 1085.06 207.338C1089.98 202.036 1092.44 195.53 1092.44 187.822V170.905H1068.48C1067.25 170.905 1066.64 170.348 1066.64 169.228V130.87C1066.64 129.753 1067.25 129.192 1068.48 129.192H1132.65C1133.54 129.192 1133.99 129.753 1133.99 130.87V187.822C1133.99 200.665 1130.97 212.282 1124.94 222.666C1118.8 233.054 1110.7 241.316 1100.65 247.459C1090.59 253.596 1079.25 256.67 1066.64 256.67L1066.63 256.677Z" fill="white"/>
<path d="M1270.38 253.325H1159.46C1158.57 253.325 1158.13 252.768 1158.13 251.651L1158.46 16.2875C1158.46 15.1736 1159.02 14.6133 1160.14 14.6133H1198.34C1199.46 14.6133 1200.02 15.1736 1200.02 16.2875L1199.68 211.112H1270.38C1271.49 211.112 1272.05 211.672 1272.05 212.786V251.654C1272.05 252.772 1271.49 253.329 1270.38 253.329V253.325Z" fill="white"/>
<path d="M1406.6 253.325H1295.69C1294.79 253.325 1294.35 252.768 1294.35 251.651L1294.69 15.9514C1294.69 15.0615 1295.13 14.6133 1296.02 14.6133H1406.27C1407.16 14.6133 1407.6 15.1736 1407.6 16.2875V54.6518C1407.6 55.5483 1407.16 55.9899 1406.27 55.9899H1335.9V109.597H1406.27C1407.16 109.597 1407.6 110.045 1407.6 110.935L1407.94 149.803C1407.94 150.7 1407.49 151.141 1406.6 151.141H1335.9V211.112H1406.6C1407.49 211.112 1407.94 211.672 1407.94 212.786V251.987C1407.94 252.884 1407.49 253.325 1406.6 253.325Z" fill="white"/>
</svg>
