<svg width="598" height="547" viewBox="0 0 598 547" fill="none" xmlns="http://www.w3.org/2000/svg">
<path d="M298.687 545.259C229.055 545.259 159.397 544.499 89.7783 545.542C47.7062 546.173 17.5371 517.184 6.76517 488.75C-1.74439 466.288 -0.831743 443.478 9.49028 422.059C19.3367 401.631 31.0469 382.091 42.3716 362.409C85.3307 287.686 128.418 213.041 171.57 138.434C189.142 108.055 206.971 77.8313 224.774 47.5945C231.356 36.4215 238.76 25.9435 249.416 18.0658C292.028 -13.4711 343.253 2.05281 366.403 37.3226C380.119 58.2012 392.588 79.9295 405.108 101.568C454.88 187.567 504.51 273.656 554.064 359.783C565.851 380.289 578.641 400.395 588.295 421.892C602.679 453.931 599.491 485.158 576.841 513.104C560.594 533.146 539.782 545.104 513.624 545.272C445.2 545.722 376.777 545.696 308.34 545.851C305.114 545.851 301.887 545.851 298.674 545.851C298.674 545.645 298.674 545.452 298.674 545.246L298.687 545.259Z" fill="#0E100F" stroke="#1D30DB" stroke-width="1.4333" stroke-miterlimit="10"/>
</svg>
