<svg width="172" height="47" viewBox="0 0 172 47" fill="none" xmlns="http://www.w3.org/2000/svg">
<path d="M131.201 46.2283L135.017 35.8208L124.857 10.0498H131.647L136.702 23.976C136.966 24.736 137.231 25.6611 137.495 26.7514C137.759 27.8087 137.958 28.6842 138.09 29.378C138.255 28.6842 138.47 27.8087 138.734 26.7514C138.998 25.6611 139.263 24.736 139.527 23.976L144.285 10.0498H150.827L137.693 46.2283H131.201Z" fill="white"/>
<path d="M113.824 37.3074C112.039 37.3074 110.47 36.944 109.115 36.2171C107.794 35.4902 106.753 34.466 105.993 33.1444C105.233 31.7898 104.853 30.2369 104.853 28.4858V6.72914H96.1309V1.12891H111.048V28.4858C111.048 29.477 111.329 30.2699 111.891 30.8647C112.486 31.4263 113.278 31.7072 114.27 31.7072H122.497V37.3074H113.824Z" fill="white"/>
<path d="M69.3496 37.3071V10.0493H75.1976V15.2531H76.734L74.9003 18.4249C74.9003 15.4843 75.5611 13.2707 76.8827 11.7839C78.2043 10.2971 80.1536 9.55371 82.7307 9.55371C85.6712 9.55371 87.984 10.4623 89.669 12.2795C91.3541 14.0967 92.1966 16.6077 92.1966 19.8125V21.7949H85.7043V20.2586C85.7043 18.5075 85.2417 17.1528 84.3166 16.1947C83.4245 15.2365 82.1855 14.7575 80.5996 14.7575C78.9807 14.7575 77.7252 15.2365 76.8331 16.1947C75.9741 17.1528 75.5446 18.5075 75.5446 20.2586V37.3071H69.3496Z" fill="white"/>
<path d="M43.3702 37.8027C40.5618 37.8027 38.3482 37.0593 36.7292 35.5725C35.1103 34.0857 34.3008 32.0868 34.3008 29.5758C34.3008 26.8996 35.1929 24.8346 36.977 23.3808C38.7611 21.9271 41.2887 21.2002 44.5596 21.2002H51.3493V18.8709C51.3493 17.5493 50.9198 16.5251 50.0607 15.7982C49.2017 15.0383 48.0288 14.6583 46.542 14.6583C45.1874 14.6583 44.064 14.9557 43.1719 15.5504C42.2799 16.1451 41.7512 16.9546 41.586 17.9788H35.5398C35.8371 15.4017 36.9935 13.3533 39.0089 11.8335C41.0244 10.3136 43.6015 9.55371 46.7402 9.55371C50.0773 9.55371 52.7039 10.3962 54.6202 12.0813C56.5696 13.7332 57.5442 15.9799 57.5442 18.8214V37.3071H51.5475V32.5494H50.5563L51.5475 31.2113C51.5475 33.2267 50.8041 34.8291 49.3173 36.0185C47.8306 37.208 45.8482 37.8027 43.3702 37.8027ZM45.4021 33.1441C47.1532 33.1441 48.5739 32.698 49.6643 31.806C50.7876 30.9139 51.3493 29.7575 51.3493 28.3368V25.0163H44.6587C43.4032 25.0163 42.3955 25.3797 41.6356 26.1066C40.8757 26.8335 40.4957 27.7916 40.4957 28.9811C40.4957 30.2696 40.9252 31.2939 41.7843 32.0538C42.6764 32.7806 43.8823 33.1441 45.4021 33.1441Z" fill="white"/>
<path d="M12.8936 37.8027C10.5808 37.8027 8.56537 37.3566 6.84731 36.4646C5.12924 35.5725 3.79113 34.3335 2.83298 32.7476C1.90787 31.1287 1.44531 29.2454 1.44531 27.0978V20.2586C1.44531 18.111 1.90787 16.2443 2.83298 14.6583C3.79113 13.0394 5.12924 11.7839 6.84731 10.8918C8.56537 9.99975 10.5808 9.55371 12.8936 9.55371C15.1733 9.55371 17.1557 9.99975 18.8407 10.8918C20.5588 11.7839 21.8804 13.0394 22.8055 14.6583C23.7637 16.2443 24.2427 18.111 24.2427 20.2586V25.165H7.44202V27.0978C7.44202 29.0141 7.90458 30.4679 8.82969 31.4591C9.75481 32.4172 11.126 32.8963 12.9431 32.8963C14.3308 32.8963 15.4542 32.665 16.3132 32.2024C17.1722 31.7069 17.7174 30.9965 17.9487 30.0714H24.0445C23.5819 32.4172 22.3264 34.3005 20.278 35.7212C18.2625 37.1089 15.8011 37.8027 12.8936 37.8027ZM18.246 21.6958V20.209C18.246 18.3258 17.8 16.8885 16.9079 15.8973C16.0158 14.8731 14.6777 14.361 12.8936 14.361C11.1094 14.361 9.75481 14.8731 8.82969 15.8973C7.90458 16.9216 7.44202 18.3753 7.44202 20.2586V21.2993L18.6921 21.2002L18.246 21.6958Z" fill="white"/>
<path d="M164.871 36.9102V0.646835H171.347V36.9102H164.871Z" fill="#000AFF"/>
</svg>
