<svg width="283" height="283" viewBox="0 0 283 283" fill="none" xmlns="http://www.w3.org/2000/svg">
<path d="M95.6069 200.58L186.708 200.58C203.459 200.58 214.075 182.512 205.648 167.905L149.424 70.4553C145.755 64.0923 136.56 64.0923 132.891 70.4553L76.6555 167.906C68.2398 182.489 78.8566 200.58 95.5954 200.58L95.6069 200.58ZM149.47 99.6792L161.714 123.377L191.26 176.218C193.209 179.6 190.801 183.934 186.72 183.934L149.481 183.934L149.481 99.6678L149.47 99.6792ZM91.0784 176.229L120.612 123.365L132.857 99.6792L132.857 183.945L95.6183 183.945C91.5367 183.945 89.1293 179.611 91.0784 176.229Z" fill="white"/>
</svg>
