<svg width="130" height="130" viewBox="0 0 130 130" fill="none" xmlns="http://www.w3.org/2000/svg">
<path fill-rule="evenodd" clip-rule="evenodd" d="M65 130C100.899 130 130 100.899 130 65C130 29.1015 100.899 0 65 0C29.1015 0 0 29.1015 0 65C0 100.899 29.1015 130 65 130ZM98.7897 43.1712C97.6164 41.1392 95.4307 39.8772 93.084 39.8772H44.4389L50.7561 50.8188H85.5433L68.1497 80.9456L74.4669 91.8873L98.7897 49.7592C99.9631 47.7273 99.9631 45.2031 98.7897 43.1712ZM44.4424 50.8188L64.9946 86.4165L65.0014 86.4043L71.3179 97.3473L70.6997 98.4178C69.5263 100.45 67.34 101.712 64.9939 101.712C62.6478 101.712 60.4615 100.45 59.2888 98.4178L31.196 49.7592C30.0233 47.7273 30.0226 45.2031 31.196 43.1712C32.3694 41.1392 34.5557 39.8772 36.9018 39.8772H38.1456L44.4614 50.8188H44.4424ZM61.2254 92.9444C61.2249 92.9452 61.2244 92.9461 61.2239 92.9469C61.2252 92.9453 61.2262 92.9436 61.2271 92.9419C61.2276 92.9409 61.2282 92.9398 61.2287 92.9388C61.2277 92.9407 61.2265 92.9425 61.2254 92.9444Z" fill="white"/>
</svg>
