<svg width="116" height="122" viewBox="0 0 116 122" fill="none" xmlns="http://www.w3.org/2000/svg">
<path d="M57.6476 14.4426C65.607 14.4426 72.0595 11.2095 72.0595 7.22132C72.0595 3.2331 65.607 0 57.6476 0C49.6881 0 43.2357 3.2331 43.2357 7.22132C43.2357 11.2095 49.6881 14.4426 57.6476 14.4426Z" fill="white"/>
<path fill-rule="evenodd" clip-rule="evenodd" d="M10.8089 30.6906L0 36.1066V80.8549C0 88.8682 4.41404 96.2271 11.4757 99.9866L47.5054 119.168C50.6763 120.856 54.1619 121.7 57.6476 121.7V64.9919L115.295 36.1066L104.486 30.6906L104.486 36.1068C104.486 40.095 98.0338 43.3287 90.0743 43.3287C82.1149 43.3287 75.6624 40.0956 75.6624 36.1073L75.6625 36.0931V21.6782C75.6778 25.6599 82.1243 28.8853 90.0743 28.8853C98.0338 28.8853 104.486 25.6522 104.486 21.664C104.486 17.6757 98.0338 14.4426 90.0743 14.4426C85.1744 14.4426 80.8456 15.6679 78.2417 17.5403L72.0595 14.4426L72.0595 21.6642C72.0595 25.6279 65.6861 28.8462 57.7942 28.8857L57.6476 28.8853L57.5009 28.8857C49.609 28.8462 43.2357 25.6284 43.2357 21.6647L43.2357 21.6505V14.4426L37.0535 17.5403C34.4496 15.6679 30.1208 14.4426 25.2208 14.4426C17.2613 14.4426 10.8089 17.6757 10.8089 21.664C10.8089 25.6522 17.2613 28.8853 25.2208 28.8853C33.1801 28.8853 39.6325 25.6523 39.6327 21.6642L39.6327 36.1068C39.6327 40.095 33.1803 43.3287 25.2208 43.3287C17.2613 43.3287 10.8089 40.0956 10.8089 36.1073L10.8089 36.0931V30.6906ZM57.6476 43.3279C49.6976 43.3279 43.2511 40.1025 43.2357 36.1209V50.5358L43.2357 50.55C43.2357 54.5382 49.6881 57.7713 57.6476 57.7713C65.607 57.7713 72.0595 54.5382 72.0595 50.55L72.0595 36.1068C72.0592 40.0949 65.6069 43.3279 57.6476 43.3279Z" fill="white"/>
</svg>
